<svg xmlns="http://www.w3.org/2000/svg" version="1.1" xmlns:xlink="http://www.w3.org/1999/xlink" xmlns:svgjs="http://svgjs.dev/svgjs" width="1440" height="540" preserveAspectRatio="none" viewBox="0 0 1440 540"><g mask="url(&quot;#SvgjsMask5777&quot;)" fill="none"><rect width="1440" height="540" x="0" y="0" fill="url(&quot;#SvgjsLinearGradient5778&quot;)"></rect><use xlink:href="#SvgjsSymbol5785" x="0" y="0"></use><use xlink:href="#SvgjsSymbol5785" x="720" y="0"></use></g><defs><mask id="SvgjsMask5777"><rect width="1440" height="540" fill="#ffffff"></rect></mask><linearGradient x1="100%" y1="50%" x2="0%" y2="50%" gradientUnits="userSpaceOnUse" id="SvgjsLinearGradient5778"><stop stop-color="rgba(14, 42, 71, 1)" offset="0"></stop><stop stop-color="rgba(17, 25, 40, 1)" offset="0.74"></stop></linearGradient><path d="M-1 0 a1 1 0 1 0 2 0 a1 1 0 1 0 -2 0z" id="SvgjsPath5781"></path><path d="M-3 0 a3 3 0 1 0 6 0 a3 3 0 1 0 -6 0z" id="SvgjsPath5779"></path><path d="M-5 0 a5 5 0 1 0 10 0 a5 5 0 1 0 -10 0z" id="SvgjsPath5780"></path><path d="M2 -2 L-2 2z" id="SvgjsPath5783"></path><path d="M6 -6 L-6 6z" id="SvgjsPath5782"></path><path d="M30 -30 L-30 30z" id="SvgjsPath5784"></path></defs><symbol id="SvgjsSymbol5785"><use xlink:href="#SvgjsPath5779" x="30" y="30" stroke="#1c538e"></use><use xlink:href="#SvgjsPath5780" x="30" y="90" stroke="#1c538e"></use><use xlink:href="#SvgjsPath5780" x="30" y="150" stroke="#1c538e"></use><use xlink:href="#SvgjsPath5781" x="30" y="210" stroke="#1c538e"></use><use xlink:href="#SvgjsPath5782" x="30" y="270" stroke="#1c538e"></use><use xlink:href="#SvgjsPath5782" x="30" y="330" stroke="#1c538e"></use><use xlink:href="#SvgjsPath5782" x="30" y="390" stroke="#1c538e"></use><use xlink:href="#SvgjsPath5782" x="30" y="450" stroke="#1c538e"></use><use xlink:href="#SvgjsPath5783" x="30" y="510" stroke="#1c538e"></use><use xlink:href="#SvgjsPath5780" x="90" y="30" stroke="#1c538e"></use><use xlink:href="#SvgjsPath5780" x="90" y="90" stroke="#1c538e"></use><use xlink:href="#SvgjsPath5779" x="90" y="150" stroke="#1c538e"></use><use xlink:href="#SvgjsPath5779" x="90" y="210" stroke="#1c538e"></use><use xlink:href="#SvgjsPath5780" x="90" y="270" stroke="#1c538e"></use><use xlink:href="#SvgjsPath5782" x="90" y="330" stroke="#1c538e"></use><use xlink:href="#SvgjsPath5782" x="90" y="390" stroke="#1c538e"></use><use xlink:href="#SvgjsPath5783" x="90" y="450" stroke="#1c538e"></use><use xlink:href="#SvgjsPath5781" x="90" y="510" stroke="#1c538e"></use><use xlink:href="#SvgjsPath5780" x="150" y="30" stroke="#1c538e"></use><use xlink:href="#SvgjsPath5780" x="150" y="90" stroke="#1c538e"></use><use xlink:href="#SvgjsPath5782" x="150" y="150" stroke="#1c538e"></use><use xlink:href="#SvgjsPath5781" x="150" y="210" stroke="#1c538e"></use><use xlink:href="#SvgjsPath5779" x="150" y="270" stroke="#1c538e"></use><use xlink:href="#SvgjsPath5782" x="150" y="330" stroke="#1c538e"></use><use xlink:href="#SvgjsPath5779" x="150" y="390" stroke="#1c538e"></use><use xlink:href="#SvgjsPath5780" x="150" y="450" stroke="#1c538e"></use><use xlink:href="#SvgjsPath5782" x="150" y="510" stroke="#1c538e"></use><use xlink:href="#SvgjsPath5780" x="210" y="30" stroke="#1c538e"></use><use xlink:href="#SvgjsPath5782" x="210" y="90" stroke="#1c538e"></use><use xlink:href="#SvgjsPath5783" x="210" y="150" stroke="#1c538e"></use><use xlink:href="#SvgjsPath5782" x="210" y="210" stroke="#1c538e"></use><use xlink:href="#SvgjsPath5779" x="210" y="270" stroke="#1c538e"></use><use xlink:href="#SvgjsPath5779" x="210" y="330" stroke="#1c538e"></use><use xlink:href="#SvgjsPath5780" x="210" y="390" stroke="#1c538e"></use><use xlink:href="#SvgjsPath5782" x="210" y="450" stroke="#1c538e"></use><use xlink:href="#SvgjsPath5780" x="210" y="510" stroke="#1c538e"></use><use xlink:href="#SvgjsPath5779" x="270" y="30" stroke="#1c538e"></use><use xlink:href="#SvgjsPath5779" x="270" y="90" stroke="#1c538e"></use><use xlink:href="#SvgjsPath5782" x="270" y="150" stroke="#1c538e"></use><use xlink:href="#SvgjsPath5782" x="270" y="210" stroke="#1c538e"></use><use xlink:href="#SvgjsPath5782" x="270" y="270" stroke="#1c538e"></use><use xlink:href="#SvgjsPath5781" x="270" y="330" stroke="#1c538e"></use><use xlink:href="#SvgjsPath5780" x="270" y="390" stroke="#1c538e"></use><use xlink:href="#SvgjsPath5780" x="270" y="450" stroke="#1c538e"></use><use xlink:href="#SvgjsPath5781" x="270" y="510" stroke="#1c538e"></use><use xlink:href="#SvgjsPath5781" x="330" y="30" stroke="#1c538e"></use><use xlink:href="#SvgjsPath5780" x="330" y="90" stroke="#1c538e"></use><use xlink:href="#SvgjsPath5780" x="330" y="150" stroke="#1c538e"></use><use xlink:href="#SvgjsPath5783" x="330" y="210" stroke="#1c538e"></use><use xlink:href="#SvgjsPath5779" x="330" y="270" stroke="#1c538e"></use><use xlink:href="#SvgjsPath5780" x="330" y="330" stroke="#1c538e"></use><use xlink:href="#SvgjsPath5781" x="330" y="390" stroke="#1c538e"></use><use xlink:href="#SvgjsPath5783" x="330" y="450" stroke="#1c538e"></use><use xlink:href="#SvgjsPath5782" x="330" y="510" stroke="#1c538e"></use><use xlink:href="#SvgjsPath5780" x="390" y="30" stroke="#1c538e"></use><use xlink:href="#SvgjsPath5780" x="390" y="90" stroke="#1c538e"></use><use xlink:href="#SvgjsPath5779" x="390" y="150" stroke="#1c538e"></use><use xlink:href="#SvgjsPath5780" x="390" y="210" stroke="#1c538e"></use><use xlink:href="#SvgjsPath5782" x="390" y="270" stroke="#1c538e"></use><use xlink:href="#SvgjsPath5780" x="390" y="330" stroke="#1c538e"></use><use xlink:href="#SvgjsPath5780" x="390" y="390" stroke="#1c538e"></use><use xlink:href="#SvgjsPath5781" x="390" y="450" stroke="#1c538e"></use><use xlink:href="#SvgjsPath5783" x="390" y="510" stroke="#1c538e"></use><use xlink:href="#SvgjsPath5780" x="450" y="30" stroke="#1c538e"></use><use xlink:href="#SvgjsPath5782" x="450" y="90" stroke="#1c538e"></use><use xlink:href="#SvgjsPath5782" x="450" y="150" stroke="#1c538e"></use><use xlink:href="#SvgjsPath5781" x="450" y="210" stroke="#1c538e"></use><use xlink:href="#SvgjsPath5781" x="450" y="270" stroke="#1c538e"></use><use xlink:href="#SvgjsPath5780" x="450" y="330" stroke="#1c538e"></use><use xlink:href="#SvgjsPath5783" x="450" y="390" stroke="#1c538e"></use><use xlink:href="#SvgjsPath5779" x="450" y="450" stroke="#1c538e"></use><use xlink:href="#SvgjsPath5783" x="450" y="510" stroke="#1c538e"></use><use xlink:href="#SvgjsPath5780" x="510" y="30" stroke="#1c538e"></use><use xlink:href="#SvgjsPath5780" x="510" y="90" stroke="#1c538e"></use><use xlink:href="#SvgjsPath5780" x="510" y="150" stroke="#1c538e"></use><use xlink:href="#SvgjsPath5780" x="510" y="210" stroke="#1c538e"></use><use xlink:href="#SvgjsPath5782" x="510" y="270" stroke="#1c538e"></use><use xlink:href="#SvgjsPath5782" x="510" y="330" stroke="#1c538e"></use><use xlink:href="#SvgjsPath5782" x="510" y="390" stroke="#1c538e"></use><use xlink:href="#SvgjsPath5780" x="510" y="450" stroke="#1c538e"></use><use xlink:href="#SvgjsPath5781" x="510" y="510" stroke="#1c538e"></use><use xlink:href="#SvgjsPath5782" x="570" y="30" stroke="#1c538e"></use><use xlink:href="#SvgjsPath5782" x="570" y="90" stroke="#1c538e"></use><use xlink:href="#SvgjsPath5782" x="570" y="150" stroke="#1c538e"></use><use xlink:href="#SvgjsPath5782" x="570" y="210" stroke="#1c538e"></use><use xlink:href="#SvgjsPath5780" x="570" y="270" stroke="#1c538e"></use><use xlink:href="#SvgjsPath5783" x="570" y="330" stroke="#1c538e"></use><use xlink:href="#SvgjsPath5779" x="570" y="390" stroke="#1c538e"></use><use xlink:href="#SvgjsPath5780" x="570" y="450" stroke="#1c538e"></use><use xlink:href="#SvgjsPath5783" x="570" y="510" stroke="#1c538e"></use><use xlink:href="#SvgjsPath5780" x="630" y="30" stroke="#1c538e"></use><use xlink:href="#SvgjsPath5780" x="630" y="90" stroke="#1c538e"></use><use xlink:href="#SvgjsPath5782" x="630" y="150" stroke="#1c538e"></use><use xlink:href="#SvgjsPath5782" x="630" y="210" stroke="#1c538e"></use><use xlink:href="#SvgjsPath5782" x="630" y="270" stroke="#1c538e"></use><use xlink:href="#SvgjsPath5781" x="630" y="330" stroke="#1c538e"></use><use xlink:href="#SvgjsPath5780" x="630" y="390" stroke="#1c538e"></use><use xlink:href="#SvgjsPath5780" x="630" y="450" stroke="#1c538e"></use><use xlink:href="#SvgjsPath5780" x="630" y="510" stroke="#1c538e"></use><use xlink:href="#SvgjsPath5782" x="690" y="30" stroke="#1c538e"></use><use xlink:href="#SvgjsPath5781" x="690" y="90" stroke="#1c538e"></use><use xlink:href="#SvgjsPath5784" x="690" y="150" stroke="#1c538e" stroke-width="3"></use><use xlink:href="#SvgjsPath5780" x="690" y="210" stroke="#1c538e"></use><use xlink:href="#SvgjsPath5780" x="690" y="270" stroke="#1c538e"></use><use xlink:href="#SvgjsPath5779" x="690" y="330" stroke="#1c538e"></use><use xlink:href="#SvgjsPath5784" x="690" y="390" stroke="#1c538e" stroke-width="3"></use><use xlink:href="#SvgjsPath5782" x="690" y="450" stroke="#1c538e"></use><use xlink:href="#SvgjsPath5780" x="690" y="510" stroke="#1c538e"></use></symbol></svg>