<svg xmlns="http://www.w3.org/2000/svg" version="1.1" xmlns:xlink="http://www.w3.org/1999/xlink" xmlns:svgjs="http://svgjs.dev/svgjs" width="1440" height="540" preserveAspectRatio="none" viewBox="0 0 1440 540"><g mask="url(&quot;#SvgjsMask1024&quot;)" fill="none"><rect width="1440" height="540" x="0" y="0" fill="url(&quot;#SvgjsLinearGradient1025&quot;)"></rect><path d="M1094 372L1462 4" stroke-width="8" stroke="url(&quot;#SvgjsLinearGradient1026&quot;)" stroke-linecap="round" class="BottomLeft"></path><path d="M788 300L493 595" stroke-width="6" stroke="url(&quot;#SvgjsLinearGradient1027&quot;)" stroke-linecap="round" class="TopRight"></path><path d="M698 203L846 55" stroke-width="10" stroke="url(&quot;#SvgjsLinearGradient1027&quot;)" stroke-linecap="round" class="TopRight"></path><path d="M336 282L-29 647" stroke-width="10" stroke="url(&quot;#SvgjsLinearGradient1026&quot;)" stroke-linecap="round" class="BottomLeft"></path><path d="M572 387L888 71" stroke-width="10" stroke="url(&quot;#SvgjsLinearGradient1027&quot;)" stroke-linecap="round" class="TopRight"></path><path d="M744 131L947 -72" stroke-width="10" stroke="url(&quot;#SvgjsLinearGradient1026&quot;)" stroke-linecap="round" class="BottomLeft"></path><path d="M1159 427L1298 288" stroke-width="10" stroke="url(&quot;#SvgjsLinearGradient1027&quot;)" stroke-linecap="round" class="TopRight"></path><path d="M1423 383L1213 593" stroke-width="8" stroke="url(&quot;#SvgjsLinearGradient1026&quot;)" stroke-linecap="round" class="BottomLeft"></path><path d="M891 315L612 594" stroke-width="10" stroke="url(&quot;#SvgjsLinearGradient1027&quot;)" stroke-linecap="round" class="TopRight"></path><path d="M1096 256L1322 30" stroke-width="8" stroke="url(&quot;#SvgjsLinearGradient1027&quot;)" stroke-linecap="round" class="TopRight"></path><path d="M981 427L594 814" stroke-width="10" stroke="url(&quot;#SvgjsLinearGradient1027&quot;)" stroke-linecap="round" class="TopRight"></path><path d="M1123 523L1432 214" stroke-width="10" stroke="url(&quot;#SvgjsLinearGradient1027&quot;)" stroke-linecap="round" class="TopRight"></path><path d="M964 10L725 249" stroke-width="8" stroke="url(&quot;#SvgjsLinearGradient1027&quot;)" stroke-linecap="round" class="TopRight"></path><path d="M893 91L534 450" stroke-width="10" stroke="url(&quot;#SvgjsLinearGradient1027&quot;)" stroke-linecap="round" class="TopRight"></path><path d="M226 276L592 -90" stroke-width="6" stroke="url(&quot;#SvgjsLinearGradient1027&quot;)" stroke-linecap="round" class="TopRight"></path><path d="M377 387L670 94" stroke-width="10" stroke="url(&quot;#SvgjsLinearGradient1026&quot;)" stroke-linecap="round" class="BottomLeft"></path><path d="M492 275L245 522" stroke-width="6" stroke="url(&quot;#SvgjsLinearGradient1026&quot;)" stroke-linecap="round" class="BottomLeft"></path><path d="M480 140L168 452" stroke-width="10" stroke="url(&quot;#SvgjsLinearGradient1026&quot;)" stroke-linecap="round" class="BottomLeft"></path><path d="M1153 175L958 370" stroke-width="6" stroke="url(&quot;#SvgjsLinearGradient1026&quot;)" stroke-linecap="round" class="BottomLeft"></path><path d="M1315 321L1100 536" stroke-width="6" stroke="url(&quot;#SvgjsLinearGradient1026&quot;)" stroke-linecap="round" class="BottomLeft"></path><path d="M424 392L712 104" stroke-width="8" stroke="url(&quot;#SvgjsLinearGradient1026&quot;)" stroke-linecap="round" class="BottomLeft"></path><path d="M1435 295L1775 -45" stroke-width="10" stroke="url(&quot;#SvgjsLinearGradient1027&quot;)" stroke-linecap="round" class="TopRight"></path><path d="M782 515L519 778" stroke-width="8" stroke="url(&quot;#SvgjsLinearGradient1026&quot;)" stroke-linecap="round" class="BottomLeft"></path><path d="M1313 47L1162 198" stroke-width="6" stroke="url(&quot;#SvgjsLinearGradient1027&quot;)" stroke-linecap="round" class="TopRight"></path><path d="M1354 488L1055 787" stroke-width="6" stroke="url(&quot;#SvgjsLinearGradient1026&quot;)" stroke-linecap="round" class="BottomLeft"></path><path d="M870 328L1063 135" stroke-width="10" stroke="url(&quot;#SvgjsLinearGradient1027&quot;)" stroke-linecap="round" class="TopRight"></path><path d="M367 4L766 -395" stroke-width="6" stroke="url(&quot;#SvgjsLinearGradient1026&quot;)" stroke-linecap="round" class="BottomLeft"></path><path d="M958 255L595 618" stroke-width="10" stroke="url(&quot;#SvgjsLinearGradient1027&quot;)" stroke-linecap="round" class="TopRight"></path><path d="M321 59L568 -188" stroke-width="6" stroke="url(&quot;#SvgjsLinearGradient1027&quot;)" stroke-linecap="round" class="TopRight"></path><path d="M72 141L-188 401" stroke-width="6" stroke="url(&quot;#SvgjsLinearGradient1027&quot;)" stroke-linecap="round" class="TopRight"></path><path d="M1333 517L1541 309" stroke-width="8" stroke="url(&quot;#SvgjsLinearGradient1026&quot;)" stroke-linecap="round" class="BottomLeft"></path><path d="M1137 453L1456 134" stroke-width="8" stroke="url(&quot;#SvgjsLinearGradient1026&quot;)" stroke-linecap="round" class="BottomLeft"></path><path d="M1291 42L970 363" stroke-width="10" stroke="url(&quot;#SvgjsLinearGradient1026&quot;)" stroke-linecap="round" class="BottomLeft"></path><path d="M1277 456L1566 167" stroke-width="8" stroke="url(&quot;#SvgjsLinearGradient1026&quot;)" stroke-linecap="round" class="BottomLeft"></path><path d="M1213 172L1547 -162" stroke-width="10" stroke="url(&quot;#SvgjsLinearGradient1027&quot;)" stroke-linecap="round" class="TopRight"></path><path d="M787 388L1092 83" stroke-width="8" stroke="url(&quot;#SvgjsLinearGradient1027&quot;)" stroke-linecap="round" class="TopRight"></path><path d="M741 397L499 639" stroke-width="8" stroke="url(&quot;#SvgjsLinearGradient1026&quot;)" stroke-linecap="round" class="BottomLeft"></path><path d="M745 109L568 286" stroke-width="8" stroke="url(&quot;#SvgjsLinearGradient1026&quot;)" stroke-linecap="round" class="BottomLeft"></path><path d="M685 146L1005 -174" stroke-width="8" stroke="url(&quot;#SvgjsLinearGradient1027&quot;)" stroke-linecap="round" class="TopRight"></path></g><defs><mask id="SvgjsMask1024"><rect width="1440" height="540" fill="#ffffff"></rect></mask><linearGradient x1="84.38%" y1="141.67%" x2="15.62%" y2="-41.67%" gradientUnits="userSpaceOnUse" id="SvgjsLinearGradient1025"><stop stop-color="rgba(14, 42, 71, 1)" offset="0.02"></stop><stop stop-color="rgba(17, 25, 40, 1)" offset="0.75"></stop></linearGradient><linearGradient x1="100%" y1="0%" x2="0%" y2="100%" id="SvgjsLinearGradient1026"><stop stop-color="rgba(10, 54, 98, 0)" offset="0"></stop><stop stop-color="rgba(10, 54, 98, 1)" offset="1"></stop></linearGradient><linearGradient x1="0%" y1="100%" x2="100%" y2="0%" id="SvgjsLinearGradient1027"><stop stop-color="rgba(10, 54, 98, 0)" offset="0"></stop><stop stop-color="rgba(10, 54, 98, 1)" offset="1"></stop></linearGradient></defs></svg>