<svg xmlns="http://www.w3.org/2000/svg" version="1.1" xmlns:xlink="http://www.w3.org/1999/xlink" xmlns:svgjs="http://svgjs.dev/svgjs" width="1440" height="540" preserveAspectRatio="none" viewBox="0 0 1440 540"><g mask="url(&quot;#SvgjsMask1513&quot;)" fill="none"><rect width="1440" height="540" x="0" y="0" fill="rgba(255, 255, 255, 1)"></rect><path d="M100.63 -144.93L248.72 -59.43L248.72 111.57L100.63 197.07L-47.46 111.57L-47.46 -59.43zM100.63 368.07L248.72 453.57L248.72 624.57L100.63 710.07L-47.46 624.57L-47.46 453.57zM693.01 368.07L841.1 453.57L841.1 624.57L693.01 710.07L544.91 624.57L544.91 453.57zM1137.29 111.57L1285.39 197.07L1285.39 368.07L1137.29 453.57L989.2 368.07L989.2 197.07zM1285.39 -144.93L1433.48 -59.43L1433.48 111.57L1285.39 197.07L1137.29 111.57L1137.29 -59.43zM1433.48 111.57L1581.58 197.07L1581.58 368.07L1433.48 453.57L1285.39 368.07L1285.39 197.07zM1285.39 368.07L1433.48 453.57L1433.48 624.57L1285.39 710.07L1137.29 624.57L1137.29 453.57z" stroke="rgba(149, 201, 255, 0.93)" stroke-width="2"></path></g><defs><mask id="SvgjsMask1513"><rect width="1440" height="540" fill="#ffffff"></rect></mask></defs></svg>