<svg xmlns="http://www.w3.org/2000/svg" version="1.1" xmlns:xlink="http://www.w3.org/1999/xlink" xmlns:svgjs="http://svgjs.dev/svgjs" width="1440" height="540" preserveAspectRatio="none" viewBox="0 0 1440 540"><g mask="url(&quot;#SvgjsMask1009&quot;)" fill="none"><rect width="1440" height="540" x="0" y="0" fill="rgba(255, 255, 255, 1)"></rect><path d="M1097 106L1294 -91" stroke-width="10" stroke="url(&quot;#SvgjsLinearGradient1010&quot;)" stroke-linecap="round" class="TopRight"></path><path d="M630 392L453 569" stroke-width="6" stroke="url(&quot;#SvgjsLinearGradient1010&quot;)" stroke-linecap="round" class="TopRight"></path><path d="M648 230L401 477" stroke-width="6" stroke="url(&quot;#SvgjsLinearGradient1010&quot;)" stroke-linecap="round" class="TopRight"></path><path d="M605 360L410 555" stroke-width="6" stroke="url(&quot;#SvgjsLinearGradient1010&quot;)" stroke-linecap="round" class="TopRight"></path><path d="M743 267L413 597" stroke-width="8" stroke="url(&quot;#SvgjsLinearGradient1010&quot;)" stroke-linecap="round" class="TopRight"></path><path d="M599 386L209 776" stroke-width="10" stroke="url(&quot;#SvgjsLinearGradient1010&quot;)" stroke-linecap="round" class="TopRight"></path><path d="M672 201L939 -66" stroke-width="10" stroke="url(&quot;#SvgjsLinearGradient1010&quot;)" stroke-linecap="round" class="TopRight"></path><path d="M1396 513L1703 206" stroke-width="6" stroke="url(&quot;#SvgjsLinearGradient1010&quot;)" stroke-linecap="round" class="TopRight"></path><path d="M1316 194L1170 340" stroke-width="6" stroke="url(&quot;#SvgjsLinearGradient1011&quot;)" stroke-linecap="round" class="BottomLeft"></path><path d="M834 222L1056 0" stroke-width="6" stroke="url(&quot;#SvgjsLinearGradient1010&quot;)" stroke-linecap="round" class="TopRight"></path><path d="M14 267L-278 559" stroke-width="6" stroke="url(&quot;#SvgjsLinearGradient1011&quot;)" stroke-linecap="round" class="BottomLeft"></path><path d="M937 285L781 441" stroke-width="6" stroke="url(&quot;#SvgjsLinearGradient1011&quot;)" stroke-linecap="round" class="BottomLeft"></path><path d="M1055 47L1390 -288" stroke-width="8" stroke="url(&quot;#SvgjsLinearGradient1011&quot;)" stroke-linecap="round" class="BottomLeft"></path><path d="M669 36L422 283" stroke-width="8" stroke="url(&quot;#SvgjsLinearGradient1011&quot;)" stroke-linecap="round" class="BottomLeft"></path><path d="M291 38L31 298" stroke-width="8" stroke="url(&quot;#SvgjsLinearGradient1010&quot;)" stroke-linecap="round" class="TopRight"></path><path d="M1143 335L789 689" stroke-width="10" stroke="url(&quot;#SvgjsLinearGradient1010&quot;)" stroke-linecap="round" class="TopRight"></path><path d="M244 390L-63 697" stroke-width="6" stroke="url(&quot;#SvgjsLinearGradient1011&quot;)" stroke-linecap="round" class="BottomLeft"></path><path d="M339 355L-2 696" stroke-width="8" stroke="url(&quot;#SvgjsLinearGradient1011&quot;)" stroke-linecap="round" class="BottomLeft"></path><path d="M1195 128L985 338" stroke-width="8" stroke="url(&quot;#SvgjsLinearGradient1011&quot;)" stroke-linecap="round" class="BottomLeft"></path><path d="M1147 166L1008 305" stroke-width="10" stroke="url(&quot;#SvgjsLinearGradient1010&quot;)" stroke-linecap="round" class="TopRight"></path><path d="M302 27L644 -315" stroke-width="10" stroke="url(&quot;#SvgjsLinearGradient1011&quot;)" stroke-linecap="round" class="BottomLeft"></path><path d="M349 479L71 757" stroke-width="8" stroke="url(&quot;#SvgjsLinearGradient1011&quot;)" stroke-linecap="round" class="BottomLeft"></path><path d="M1030 282L807 505" stroke-width="10" stroke="url(&quot;#SvgjsLinearGradient1011&quot;)" stroke-linecap="round" class="BottomLeft"></path><path d="M951 376L567 760" stroke-width="6" stroke="url(&quot;#SvgjsLinearGradient1010&quot;)" stroke-linecap="round" class="TopRight"></path><path d="M1138 359L791 706" stroke-width="6" stroke="url(&quot;#SvgjsLinearGradient1010&quot;)" stroke-linecap="round" class="TopRight"></path><path d="M1190 473L837 826" stroke-width="8" stroke="url(&quot;#SvgjsLinearGradient1010&quot;)" stroke-linecap="round" class="TopRight"></path><path d="M1094 11L698 407" stroke-width="6" stroke="url(&quot;#SvgjsLinearGradient1011&quot;)" stroke-linecap="round" class="BottomLeft"></path><path d="M1409 54L1793 -330" stroke-width="8" stroke="url(&quot;#SvgjsLinearGradient1011&quot;)" stroke-linecap="round" class="BottomLeft"></path><path d="M1236 142L975 403" stroke-width="6" stroke="url(&quot;#SvgjsLinearGradient1010&quot;)" stroke-linecap="round" class="TopRight"></path><path d="M247 278L89 436" stroke-width="6" stroke="url(&quot;#SvgjsLinearGradient1011&quot;)" stroke-linecap="round" class="BottomLeft"></path><path d="M1381 293L1568 106" stroke-width="10" stroke="url(&quot;#SvgjsLinearGradient1010&quot;)" stroke-linecap="round" class="TopRight"></path><path d="M228 23L526 -275" stroke-width="8" stroke="url(&quot;#SvgjsLinearGradient1011&quot;)" stroke-linecap="round" class="BottomLeft"></path><path d="M389 22L645 -234" stroke-width="10" stroke="url(&quot;#SvgjsLinearGradient1010&quot;)" stroke-linecap="round" class="TopRight"></path><path d="M1373 252L1659 -34" stroke-width="6" stroke="url(&quot;#SvgjsLinearGradient1011&quot;)" stroke-linecap="round" class="BottomLeft"></path><path d="M419 281L163 537" stroke-width="10" stroke="url(&quot;#SvgjsLinearGradient1011&quot;)" stroke-linecap="round" class="BottomLeft"></path><path d="M1368 48L1223 193" stroke-width="6" stroke="url(&quot;#SvgjsLinearGradient1011&quot;)" stroke-linecap="round" class="BottomLeft"></path><path d="M296 100L663 -267" stroke-width="8" stroke="url(&quot;#SvgjsLinearGradient1010&quot;)" stroke-linecap="round" class="TopRight"></path><path d="M247 423L414 256" stroke-width="6" stroke="url(&quot;#SvgjsLinearGradient1011&quot;)" stroke-linecap="round" class="BottomLeft"></path><path d="M1048 469L1386 131" stroke-width="8" stroke="url(&quot;#SvgjsLinearGradient1010&quot;)" stroke-linecap="round" class="TopRight"></path></g><defs><mask id="SvgjsMask1009"><rect width="1440" height="540" fill="#ffffff"></rect></mask><linearGradient x1="0%" y1="100%" x2="100%" y2="0%" id="SvgjsLinearGradient1010"><stop stop-color="rgba(183, 216, 250, 0)" offset="0"></stop><stop stop-color="rgba(183, 216, 250, 1)" offset="1"></stop></linearGradient><linearGradient x1="100%" y1="0%" x2="0%" y2="100%" id="SvgjsLinearGradient1011"><stop stop-color="rgba(183, 216, 250, 0)" offset="0"></stop><stop stop-color="rgba(183, 216, 250, 1)" offset="1"></stop></linearGradient></defs></svg>